<?xml version="1.0" encoding="UTF-8"?>
<svg id="Layer_2" data-name="Layer 2" xmlns="http://www.w3.org/2000/svg" viewBox="0 0 1670.01 363.26">
  <defs>
    <style>
      .cls-1 {
        fill: #fff;
      }

      .cls-2 {
        fill: #2e7d32;
      }

      .cls-3 {
        fill: #a3f067;
      }
    </style>
  </defs>
  <g id="Layer_1-2" data-name="Layer 1">
    <g>
      <g>
        <g>
          <polygon class="cls-2" points="371.13 297.95 216.34 363.26 216.34 0 348.76 70.68 371.13 297.95"/>
          <polygon class="cls-2" points="177.88 183.38 177.84 215.67 0 303.09 44.71 42.2 113.16 134.04 177.88 183.38"/>
          <polygon class="cls-2" points="210.19 1.59 210.17 200.59 119.99 131.11 210.19 1.59"/>
          <polygon class="cls-2" points="150.85 75.29 116.15 125.28 49.93 38.63 150.85 75.29"/>
        </g>
        <g>
          <path class="cls-3" d="m354.29,287.93l-122.18,51.56V8.42l15.77,8.42v275.1c10.4-4.39,21.9,3.25,21.9,14.53l53.19-22.45c-.77-9.34,4.55-18.12,13.18-21.77l-17.14-207.45,14.87,7.94,20.41,225.18Z"/>
          <path class="cls-3" d="m162.12,171.37l-.05,34.47L20.76,275.31,57.72,59.65l13.01,17.46h0s-25.29,147.59-25.29,147.59c8.67-4.26,18.51,3.1,16.88,12.61l69.95-34.39c0-7.97,4.53-15.24,11.68-18.75v-26.65l18.18,13.86Z"/>
          <polygon class="cls-3" points="210.19 1.59 210.19 29.2 131.61 140.06 119.99 131.1 210.19 1.59"/>
          <polygon class="cls-3" points="125.43 111.91 116.14 125.28 49.94 38.63 77.69 48.71 125.43 111.91"/>
        </g>
      </g>
      <g>
        <path class="cls-1" d="m515.2,103.57c8.19,0,14.81,1.02,19.88,3.07,5.07,2.05,9.16,4.82,12.28,8.33,3.12,3.7,5.36,8.53,6.72,14.47,1.36,5.95,2.05,13.79,2.05,23.54v78.65c0,8.19,1.27,13.74,3.8,16.66,2.53,2.92,6.92,4.39,13.16,4.39v6.14c-3.51-.19-8.82-.44-15.93-.73-7.12-.29-14.08-.44-20.9-.44s-13.94.15-20.76.44c-6.82.29-11.99.54-15.5.73v-6.14c5.26,0,8.92-1.46,10.96-4.39,2.05-2.92,3.07-8.48,3.07-16.66v-90.92c0-4.87-.39-9.11-1.17-12.72-.78-3.6-2.29-6.43-4.53-8.48-2.24-2.05-5.61-3.07-10.09-3.07-5.07,0-9.75,1.46-14.03,4.39-4.29,2.92-7.75,6.97-10.38,12.13-2.63,5.17-3.95,10.96-3.95,17.4v81.28c0,8.19,1.07,13.74,3.22,16.66,2.14,2.92,5.75,4.39,10.82,4.39v6.14c-3.12-.19-7.94-.44-14.47-.73-6.53-.29-13.21-.44-20.03-.44-7.41,0-15.01.15-22.8.44-7.8.29-13.65.54-17.54.73v-6.14c6.82,0,11.64-1.46,14.47-4.39,2.82-2.92,4.24-8.48,4.24-16.66v-92.09c0-8.77-1.32-15.25-3.95-19.44-2.63-4.19-7.56-6.29-14.76-6.29v-6.14c6.24.58,12.28.88,18.13.88,8.19,0,15.83-.34,22.95-1.02,7.11-.68,13.69-1.7,19.73-3.07v26.31c4.68-9.74,11.01-16.71,19-20.9,7.99-4.19,16.76-6.29,26.31-6.29Zm88,0c8.19,0,14.81,1.02,19.88,3.07,5.07,2.05,9.16,4.82,12.28,8.33,3.12,3.7,5.36,8.53,6.72,14.47,1.36,5.95,2.05,13.79,2.05,23.54v78.65c0,8.19,1.41,13.74,4.24,16.66,2.82,2.92,7.65,4.39,14.47,4.39v6.14c-3.7-.19-9.26-.44-16.66-.73-7.41-.29-14.72-.44-21.93-.44s-13.94.15-20.76.44c-6.82.29-11.99.54-15.5.73v-6.14c5.26,0,8.92-1.46,10.96-4.39,2.05-2.92,3.07-8.48,3.07-16.66v-90.92c0-4.87-.44-9.11-1.32-12.72-.88-3.6-2.54-6.43-4.97-8.48-2.44-2.05-6.19-3.07-11.26-3.07s-9.75,1.56-14.03,4.68c-4.29,3.12-7.75,7.31-10.38,12.57-2.63,5.26-4.05,11.11-4.24,17.54l-1.46-17.83c5.26-11.69,12.23-19.59,20.9-23.68,8.67-4.09,17.98-6.14,27.92-6.14Z"/>
        <path class="cls-1" d="m734.47,103.57c14.23,0,26.7,2.63,37.42,7.89,10.72,5.26,19.1,13.74,25.14,25.44,6.04,11.69,9.06,27.19,9.06,46.49s-3.02,34.74-9.06,46.34c-6.04,11.6-14.43,20.03-25.14,25.29-10.72,5.26-23.2,7.89-37.42,7.89s-26.17-2.63-36.98-7.89c-10.82-5.26-19.3-13.69-25.44-25.29-6.14-11.59-9.21-27.04-9.21-46.34s3.07-34.79,9.21-46.49c6.14-11.69,14.62-20.17,25.44-25.44,10.82-5.26,23.14-7.89,36.98-7.89Zm0,5.85c-7.8,0-14.33,5.8-19.59,17.4-5.26,11.6-7.89,30.46-7.89,56.57s2.63,44.93,7.89,56.42c5.26,11.5,11.79,17.25,19.59,17.25s14.57-5.75,19.73-17.25c5.16-11.5,7.75-30.3,7.75-56.42s-2.59-44.97-7.75-56.57c-5.17-11.59-11.74-17.4-19.73-17.4Z"/>
        <path class="cls-1" d="m918.36,103.57c8.19,0,14.86,1.02,20.03,3.07,5.16,2.05,9.21,4.82,12.13,8.33,3.12,3.7,5.41,8.48,6.87,14.33,1.46,5.85,2.19,13.74,2.19,23.68v78.65c0,8.19,1.41,13.74,4.24,16.66,2.82,2.92,7.65,4.39,14.47,4.39v6.14c-3.7-.19-9.26-.44-16.66-.73-7.41-.29-14.72-.44-21.93-.44s-14.67.15-21.78.44c-7.12.29-12.53.54-16.23.73v-6.14c5.85,0,9.94-1.46,12.28-4.39,2.34-2.92,3.51-8.48,3.51-16.66v-90.92c0-4.87-.49-9.11-1.46-12.72-.98-3.6-2.73-6.43-5.26-8.48-2.54-2.05-6.34-3.07-11.4-3.07s-10.09,1.46-14.47,4.39c-4.39,2.92-7.89,6.97-10.53,12.13-2.63,5.17-3.95,10.96-3.95,17.4v81.28c0,8.19,1.21,13.74,3.65,16.66,2.43,2.92,6.48,4.39,12.13,4.39v6.14c-3.51-.19-8.62-.44-15.35-.73-6.72-.29-13.7-.44-20.9-.44s-15.01.15-22.8.44c-7.8.29-13.65.54-17.54.73v-6.14c6.82,0,11.64-1.46,14.47-4.39,2.82-2.92,4.24-8.48,4.24-16.66v-92.09c0-8.77-1.32-15.25-3.95-19.44-2.63-4.19-7.56-6.29-14.76-6.29v-6.14c6.24.58,12.28.88,18.13.88,8.19,0,15.83-.34,22.95-1.02,7.11-.68,13.69-1.7,19.73-3.07v26.31c4.87-9.94,11.5-16.96,19.88-21.05,8.38-4.09,17.73-6.14,28.07-6.14Z"/>
        <path class="cls-1" d="m1035.3,104.45v127.18c0,8.19,1.41,13.74,4.24,16.66,2.82,2.92,7.65,4.39,14.47,4.39v6.14c-3.7-.19-9.21-.44-16.52-.73-7.31-.29-14.76-.44-22.37-.44s-15.3.15-23.1.44c-7.8.29-13.65.54-17.54.73v-6.14c6.82,0,11.64-1.46,14.47-4.39,2.82-2.92,4.24-8.48,4.24-16.66v-92.09c0-8.77-1.32-15.25-3.95-19.44-2.63-4.19-7.56-6.29-14.76-6.29v-6.14c6.24.58,12.28.88,18.13.88,8.19,0,15.83-.34,22.95-1.02,7.11-.68,13.69-1.7,19.73-3.07Z"/>
        <path class="cls-3" d="m1012.5,32.23c8.19,0,14.66,2,19.44,5.99,4.77,4,7.16,9.5,7.16,16.52s-2.39,12.53-7.16,16.52c-4.78,4-11.26,5.99-19.44,5.99s-14.67-2-19.44-5.99c-4.78-3.99-7.16-9.5-7.16-16.52s2.38-12.52,7.16-16.52c4.77-3.99,11.26-5.99,19.44-5.99Z"/>
        <path class="cls-1" d="m1158.09,103.57c8.19,0,14.81,1.02,19.88,3.07,5.07,2.05,9.16,4.82,12.28,8.33,3.12,3.7,5.36,8.53,6.72,14.47,1.36,5.95,2.05,13.79,2.05,23.54v78.65c0,8.19,1.27,13.74,3.8,16.66,2.53,2.92,6.92,4.39,13.16,4.39v6.14c-3.51-.19-8.82-.44-15.93-.73-7.12-.29-14.08-.44-20.9-.44s-13.94.15-20.76.44c-6.82.29-11.99.54-15.5.73v-6.14c5.26,0,8.92-1.46,10.96-4.39,2.05-2.92,3.07-8.48,3.07-16.66v-90.92c0-4.87-.39-9.11-1.17-12.72-.78-3.6-2.29-6.43-4.53-8.48-2.24-2.05-5.61-3.07-10.09-3.07-5.07,0-9.75,1.46-14.03,4.39-4.29,2.92-7.75,6.97-10.38,12.13-2.63,5.17-3.95,10.96-3.95,17.4v81.28c0,8.19,1.07,13.74,3.22,16.66,2.14,2.92,5.75,4.39,10.82,4.39v6.14c-3.12-.19-7.94-.44-14.47-.73-6.53-.29-13.21-.44-20.03-.44-7.41,0-15.01.15-22.8.44-7.8.29-13.65.54-17.54.73v-6.14c6.82,0,11.64-1.46,14.47-4.39,2.82-2.92,4.24-8.48,4.24-16.66v-92.09c0-8.77-1.32-15.25-3.95-19.44-2.63-4.19-7.56-6.29-14.76-6.29v-6.14c6.24.58,12.28.88,18.13.88,8.19,0,15.83-.34,22.95-1.02,7.11-.68,13.69-1.7,19.73-3.07v26.31c4.68-9.74,11.01-16.71,19-20.9,7.99-4.19,16.76-6.29,26.31-6.29Zm88,0c8.19,0,14.81,1.02,19.88,3.07,5.07,2.05,9.16,4.82,12.28,8.33,3.12,3.7,5.36,8.53,6.72,14.47,1.36,5.95,2.05,13.79,2.05,23.54v78.65c0,8.19,1.41,13.74,4.24,16.66,2.82,2.92,7.65,4.39,14.47,4.39v6.14c-3.7-.19-9.26-.44-16.66-.73-7.41-.29-14.72-.44-21.93-.44s-13.94.15-20.76.44c-6.82.29-11.99.54-15.5.73v-6.14c5.26,0,8.92-1.46,10.96-4.39,2.05-2.92,3.07-8.48,3.07-16.66v-90.92c0-4.87-.44-9.11-1.32-12.72-.88-3.6-2.54-6.43-4.97-8.48-2.44-2.05-6.19-3.07-11.26-3.07s-9.75,1.56-14.03,4.68c-4.29,3.12-7.75,7.31-10.38,12.57s-4.05,11.11-4.24,17.54l-1.46-17.83c5.26-11.69,12.23-19.59,20.9-23.68,8.67-4.09,17.98-6.14,27.92-6.14Z"/>
        <path class="cls-1" d="m1342.28,260.86c-8.77,0-16.08-1.66-21.93-4.97-5.85-3.31-10.14-7.75-12.86-13.3-2.73-5.55-4.09-11.64-4.09-18.27,0-8.38,1.9-15.2,5.7-20.46,3.8-5.26,8.72-9.55,14.76-12.86,6.04-3.31,12.43-6.04,19.15-8.19,6.72-2.14,13.16-4.24,19.3-6.29,6.14-2.05,11.11-4.48,14.91-7.31,3.8-2.82,5.7-6.48,5.7-10.96v-22.8c0-5.07-.83-9.6-2.49-13.59-1.66-3.99-4.19-7.06-7.6-9.21-3.41-2.14-7.85-3.22-13.3-3.22-3.9,0-7.8.54-11.69,1.61-3.9,1.07-7.12,2.88-9.65,5.41,5.45,1.95,9.69,4.92,12.72,8.92,3.02,4,4.53,8.53,4.53,13.59,0,6.63-2.29,11.89-6.87,15.79-4.58,3.9-9.99,5.85-16.23,5.85-7.02,0-12.33-2.19-15.93-6.58-3.61-4.39-5.41-9.69-5.41-15.93,0-5.65,1.41-10.33,4.24-14.03,2.82-3.7,6.77-7.21,11.84-10.52,5.45-3.12,12.03-5.55,19.73-7.31,7.7-1.75,16.03-2.63,25-2.63s17.05.93,24.27,2.78c7.21,1.85,13.25,5.22,18.13,10.09,4.48,4.49,7.41,9.99,8.77,16.52,1.36,6.53,2.05,14.76,2.05,24.7v79.52c0,4.87.48,8.24,1.46,10.09.97,1.86,2.63,2.78,4.97,2.78,1.75,0,3.46-.48,5.12-1.46,1.65-.97,3.46-2.14,5.41-3.51l2.92,4.97c-4.09,3.51-8.82,6.19-14.18,8.04-5.36,1.85-11.36,2.78-17.98,2.78-7.21,0-12.96-1.02-17.25-3.07-4.29-2.05-7.36-4.82-9.21-8.33-1.85-3.51-2.78-7.6-2.78-12.28-4.68,7.41-10.33,13.21-16.96,17.4-6.63,4.19-14.72,6.29-24.27,6.29Zm20.76-18.71c3.9,0,7.46-.92,10.67-2.78,3.22-1.85,6.29-4.92,9.21-9.21v-59.94c-1.75,2.92-4.19,5.55-7.31,7.89-3.12,2.34-6.43,4.73-9.94,7.16-3.51,2.44-6.87,5.12-10.09,8.04-3.22,2.92-5.8,6.53-7.75,10.82-1.95,4.29-2.92,9.46-2.92,15.5,0,7.6,1.65,13.26,4.97,16.96,3.31,3.7,7.7,5.55,13.16,5.55Z"/>
        <path class="cls-1" d="m1498.11,59.72v47.95h34.5v5.85h-34.5v118.11c0,5.85,1.07,9.99,3.22,12.43,2.14,2.44,5.36,3.65,9.65,3.65,3.51,0,7.02-1.31,10.52-3.95,3.51-2.63,6.62-7.16,9.36-13.59l4.97,2.63c-3.12,8.77-7.85,15.98-14.18,21.63-6.34,5.65-14.96,8.48-25.87,8.48-6.43,0-12.09-.83-16.96-2.49-4.87-1.65-8.97-4.14-12.28-7.45-4.29-4.29-7.12-9.6-8.48-15.93-1.37-6.33-2.05-14.57-2.05-24.7v-98.82h-24.56v-5.85h24.56v-38.59c8.19,0,15.74-.73,22.66-2.19,6.92-1.46,13.4-3.85,19.44-7.16Z"/>
        <path class="cls-1" d="m1567.39,260.86c-8.77,0-16.08-1.66-21.93-4.97-5.85-3.31-10.14-7.75-12.86-13.3-2.73-5.55-4.09-11.64-4.09-18.27,0-8.38,1.9-15.2,5.7-20.46,3.8-5.26,8.72-9.55,14.76-12.86,6.04-3.31,12.43-6.04,19.15-8.19,6.72-2.14,13.16-4.24,19.3-6.29,6.14-2.05,11.11-4.48,14.91-7.31,3.8-2.82,5.7-6.48,5.7-10.96v-22.8c0-5.07-.83-9.6-2.49-13.59-1.66-3.99-4.19-7.06-7.6-9.21-3.41-2.14-7.85-3.22-13.3-3.22-3.9,0-7.8.54-11.69,1.61-3.9,1.07-7.12,2.88-9.65,5.41,5.45,1.95,9.69,4.92,12.72,8.92,3.02,4,4.53,8.53,4.53,13.59,0,6.63-2.29,11.89-6.87,15.79-4.58,3.9-9.99,5.85-16.23,5.85-7.02,0-12.33-2.19-15.93-6.58-3.61-4.39-5.41-9.69-5.41-15.93,0-5.65,1.41-10.33,4.24-14.03,2.82-3.7,6.77-7.21,11.84-10.52,5.45-3.12,12.03-5.55,19.73-7.31,7.7-1.75,16.03-2.63,25-2.63s17.05.93,24.27,2.78c7.21,1.85,13.25,5.22,18.13,10.09,4.48,4.49,7.41,9.99,8.77,16.52,1.36,6.53,2.05,14.76,2.05,24.7v79.52c0,4.87.48,8.24,1.46,10.09.97,1.86,2.63,2.78,4.97,2.78,1.75,0,3.46-.48,5.12-1.46,1.65-.97,3.46-2.14,5.41-3.51l2.92,4.97c-4.09,3.51-8.82,6.19-14.18,8.04-5.36,1.85-11.36,2.78-17.98,2.78-7.21,0-12.96-1.02-17.25-3.07-4.29-2.05-7.36-4.82-9.21-8.33-1.85-3.51-2.78-7.6-2.78-12.28-4.68,7.41-10.33,13.21-16.96,17.4-6.63,4.19-14.72,6.29-24.27,6.29Zm20.76-18.71c3.9,0,7.46-.92,10.67-2.78,3.22-1.85,6.29-4.92,9.21-9.21v-59.94c-1.75,2.92-4.19,5.55-7.31,7.89-3.12,2.34-6.43,4.73-9.94,7.16-3.51,2.44-6.87,5.12-10.09,8.04-3.22,2.92-5.8,6.53-7.75,10.82-1.95,4.29-2.92,9.46-2.92,15.5,0,7.6,1.65,13.26,4.97,16.96,3.31,3.7,7.7,5.55,13.16,5.55Z"/>
      </g>
    </g>
  </g>
</svg>